<svg xmlns="http://www.w3.org/2000/svg" width="860" height="1180" viewBox="0 0 860 1180" font-family="Arial, sans-serif">
<style>
 .t{font-size:11px;fill:#222}
 .s{font-size:9px;fill:#333}
 .h{font-size:15px;font-weight:bold;fill:#111}
 .panel{fill:#f6f3ec;stroke:#999;stroke-width:1}
 .trail{fill:none;stroke:#b07a3a;stroke-width:4;stroke-linejoin:round}
 .trailthin{fill:none;stroke:#b07a3a;stroke-width:6;stroke-linejoin:round;opacity:0.6}
 .unread{fill:none;stroke:#b07a3a;stroke-width:3;stroke-dasharray:6 4}
 .firwall{fill:#3d5a2a;fill-opacity:0.25;stroke:#3d5a2a;stroke-width:1;stroke-dasharray:4 3}
 .grove{fill:#3d5a2a;fill-opacity:0.12;stroke:#3d5a2a;stroke-width:1}
 .clear{fill:#e4ddcf;stroke:#8a7a50;stroke-width:1;stroke-dasharray:3 3}
 .screen{fill:#3d5a2a;fill-opacity:0.45;stroke:#2a4a1a;stroke-width:1}
 .ruin{fill:#cfc6b4;stroke:#333;stroke-width:1.2}
 .giant{stroke:#6b4a2a;stroke-width:10;stroke-linecap:round}
 .act{fill:#f2c98a;stroke:#7a4a10;stroke-width:1}
 .evt{fill:#e8a0c8;stroke:#8a2a6a;stroke-width:1}
 .forage{fill:#9cc46a;stroke:#3d5a2a;stroke-width:1}
 .gone{stroke:#c0392b;stroke-width:1.6}
 .sight{fill:none;stroke:#8e44ad;stroke-width:1.2;stroke-dasharray:6 3}
 .deck{fill:none;stroke:#c0392b;stroke-width:1.2;stroke-dasharray:8 3}
 .lane{stroke:#2a7fd4;stroke-opacity:0.25}
 .route{fill:none;stroke:#2a7fd4;stroke-width:2}
 .wall{stroke:#555;stroke-width:5}
 .half{stroke:#555;stroke-width:3;stroke-dasharray:5 2}
 .fur{fill:#d9d2c3;stroke:#333;stroke-width:0.8}
 .nocol{fill:none;stroke:#333;stroke-width:0.8;stroke-dasharray:3 2}
 .tree{fill:#3d5a2a;fill-opacity:0.6;stroke:#2a4a1a;stroke-width:0.8}
 .warp{fill:#2a7fd4}
</style>
<text x="20" y="22" class="h">NorthLayout.svg, draft 1, 2026-10-02, Sable. PLAN 8.24: Camp 1, the north loop, forage C, the ruin</text>
<text x="20" y="38" class="s">World metres as Valley.md (x east, z north). Positions read from Main3.unity at a4dbf57; trail drawn from its built points. Nothing decided until DECISIONS.md and Grant.</text>

<!-- PANEL A: area plan, 4 px per m. px = 20 + 4(x - 112), py = 60 + 4(305 - z) -->
<rect x="20" y="60" width="792" height="420" class="panel"/>
<text x="26" y="74" class="t" font-weight="bold">A. Area plan, 1:1000 (4 px = 1 m). Bounds x 116 to 310, z 200 to 305.</text>
<rect x="20" y="80" width="752" height="60" class="firwall"/>
<text x="300" y="112" class="s">north fir wall, z 285 to 310, rock band behind (Valley 8)</text>
<circle cx="272" cy="152" r="80" class="grove"/>
<text x="296" y="98" class="s">grove N1 (175, 282) r 20</text>
<circle cx="700" cy="328" r="116" class="clear"/>
<text x="742" y="440" class="s">Camp 1 clearing, C1 ring from r 29</text>
<!-- R-1 screen and deck line -->
<rect x="221" y="248" width="64" height="24" class="screen"/>
<text x="290" y="262" class="s">R-1 screen, 23 to 29 m toward the deck</text>
<line x1="260" y1="156" x2="237.6" y2="480" class="deck"/>
<text x="150" y="470" class="s" fill="#c0392b">deck line, 115 m, bearing 184 from the ruin</text>
<!-- loop trail, built points -->
<polyline class="trail" points="700,328 660,301.2 626,266.4 577.2,238.4 531.2,234 502,214.4 472.4,202.4 437.6,210 396,214.4 368,190.4 342.8,173.6 319.2,176.8 296.8,194.4 274.8,212 244.4,211.6 207.6,200 169.2,210 143.6,237.2 112,265.2 73.6,285.2 54.4,321.2 39.2,358.8"/>
<polyline class="unread" points="39.2,358.8 30,400"/>
<text x="24" y="414" class="s">to J (104, 207), 8.29</text>
<polyline class="trail" points="700,328 628,448 624,480"/>
<text x="632" y="474" class="s">Jg to Camp 1 (from Jg 262, 172)</text>
<rect x="622" y="446" width="9" height="9" class="fur"/>
<text x="560" y="452" class="s">latrine at 42</text>
<!-- Camp 1 marks -->
<circle cx="708" cy="320" r="3" fill="#333"/><text x="714" y="318" class="s">spar</text>
<rect x="709" y="330" width="7" height="5" class="act"/><text x="720" y="340" class="s">kid's table</text>
<circle cx="676" cy="352" r="4" class="act"/><text x="682" y="362" class="s">cookfire</text>
<rect x="650" y="336" width="12" height="12" class="fur"/><text x="606" y="344" class="s">tent</text>
<circle cx="658.8" cy="290.8" r="3" fill="#7a4a10"/><text x="664" y="290" class="s">blaze stump</text>
<line x1="740" y1="292" x2="788" y2="272" class="lane" stroke-width="16"/><text x="744" y="266" class="s">N7 drag lane</text>
<circle cx="644" cy="376" r="4" class="warp"/><text x="580" y="388" class="s">warp Camp_1, facing 49</text>
<!-- forage C -->
<circle cx="490" cy="186" r="8" class="forage"/>
<text x="460" y="172" class="t">N8 forage C (229.5, 273.5)</text>
<line x1="577.2" y1="238.4" x2="490" y2="186" class="sight"/><text x="520" y="246" class="s">F3, 25 m</text>
<line x1="485" y1="178" x2="493" y2="186" class="gone"/><line x1="483" y1="186" x2="491" y2="178" class="gone"/>
<!-- SS1 -->
<circle cx="592" cy="150.4" r="5" class="evt"/><text x="600" y="150" class="t">N9 SS1 (255, 282.4)</text>
<line x1="614.4" y1="254.2" x2="592" y2="150.4" class="sight"/><text x="612" y="200" class="s">F6, 26.8 m, 44 deg</text>
<!-- ruin -->
<rect x="248" y="148" width="24" height="16" class="ruin" transform="rotate(45 260 156)"/>
<text x="196" y="132" class="t">N13 ruin (172, 281), door SW</text>
<line x1="254.4" y1="161.6" x2="244.4" y2="211.6" stroke="#777" stroke-width="2" stroke-dasharray="2 2"/>
<text x="196" y="226" class="s">side path stones</text>
<circle cx="235.2" cy="209.2" r="4" class="warp"/><text x="186" y="200" class="s">warp North_Loop_Ruin</text>
<line x1="342.8" y1="173.6" x2="261.2" y2="157.6" class="sight"/><text x="300" y="160" class="s">N14 approach lane, 21 m</text>
<line x1="252.8" y1="181.2" x2="260.8" y2="189.2" class="gone"/><line x1="252.8" y1="189.2" x2="260.8" y2="181.2" class="gone"/>
<line x1="262.4" y1="146.8" x2="270.4" y2="154.8" class="gone"/><line x1="262.4" y1="154.8" x2="270.4" y2="146.8" class="gone"/>
<text x="330" y="190" class="s" fill="#c0392b">X = object removed</text>
<!-- giant, SS2, SS3 -->
<line x1="155.2" y1="195.6" x2="98" y2="250.8" class="giant"/>
<text x="60" y="186" class="t">N11 fallen giant, 19.9 m</text>
<circle cx="180" cy="160" r="5" class="evt"/><text x="150" y="150" class="t">N10 SS2</text>
<line x1="216.8" y1="202.4" x2="180" y2="160" class="sight"/>
<circle cx="101.2" cy="230.8" r="5" class="evt"/><text x="40" y="232" class="t">N12 SS3</text>
<line x1="133.2" y1="252" x2="98" y2="250.8" class="sight"/><text x="96" y="266" class="s">F8 to the SW end</text>
<!-- scale -->
<line x1="40" y1="460" x2="120" y2="460" stroke="#111" stroke-width="2"/><text x="40" y="474" class="s">20 m</text>
<text x="780" y="76" class="t">N</text><line x1="784" y1="100" x2="784" y2="80" stroke="#111" stroke-width="2"/>

<!-- PANEL B: Camp 1, 10 px per m. px = 20 + 10(x - 262), py = 520 + 10(256 - z) -->
<rect x="20" y="500" width="460" height="345" class="panel"/>
<text x="26" y="514" class="t" font-weight="bold">B. Camp 1, 1:100 (10 px = 1 m), x 262 to 308, z 224 to 256</text>
<polyline class="trailthin" points="220,700 170,667 120,633 76,592 35,546"/>
<text x="40" y="560" class="s">loop west</text>
<polyline class="unread" points="220,700 136,840"/><text x="140" y="836" class="s">to Jg (points not read)</text>
<circle cx="240" cy="680" r="20" fill="none" stroke="#333" stroke-dasharray="2 2"/><circle cx="240" cy="680" r="2.3" fill="#333"/>
<text x="262" y="676" class="s">N2 spar, 2 m clear foot</text>
<rect x="246" y="711" width="12" height="8" class="act" transform="rotate(25 252 715)"/>
<text x="268" y="718" class="s">N1 kid's table</text>
<rect x="240" y="708" width="6" height="6" class="fur" transform="rotate(25 243 711)"/>
<text x="196" y="706" class="s">customer chair</text>
<circle cx="259.7" cy="717.5" r="2.5" class="fur"/>
<circle cx="247.5" cy="731.7" r="2.5" class="fur"/><text x="252" y="740" class="s">lid stool</text>
<circle cx="250" cy="640" r="4" class="act"/><text x="258" y="642" class="s">N3 R1's spot, Talk</text>
<rect x="95" y="720" width="30" height="30" class="fur" transform="rotate(200 110 735)"/>
<text x="112" y="770" class="s">N4 tent, door 20</text>
<line x1="88" y1="715" x2="80" y2="737" stroke="#7a4a10" stroke-width="5" stroke-dasharray="5 2"/>
<text x="24" y="728" class="s">taped boxes</text>
<line x1="116" y1="710" x2="120" y2="633" class="lane" stroke-width="30"/>
<text x="126" y="690" class="s">chase lane, 8 m</text>
<circle cx="160" cy="760" r="6" class="act"/><text x="168" y="790" class="s">N5 cookfire, bucket, jug</text>
<rect x="141" y="743" width="6" height="6" class="fur"/><rect x="174" y="742" width="6" height="6" class="fur"/>
<circle cx="169" cy="770" r="2" class="nocol"/><rect x="175" y="772" width="4" height="4" class="nocol"/>
<rect x="58" y="646" width="14" height="8" class="fur"/><rect x="143" y="566" width="14" height="8" class="fur"/><rect x="323" y="756" width="14" height="8" class="fur"/>
<text x="330" y="752" class="s">workbench</text>
<rect x="394" y="676" width="14" height="8" class="fur"/><text x="390" y="698" class="s">lumber</text>
<circle cx="117" cy="607" r="3" fill="#7a4a10"/><text x="70" y="604" class="s">blaze</text>
<line x1="320" y1="610" x2="440" y2="560" class="lane" stroke-width="40"/><text x="340" y="590" class="s">N7 drag lane, 4 m</text>
<circle cx="431" cy="522" r="4" class="tree"/><text x="380" y="534" class="s">RedFir5 edge</text>
<circle cx="80" cy="820" r="4" class="warp"/><text x="40" y="815" class="s">warp</text>

<!-- PANEL C: ruin plan, local metres, 40 px per m, front (SW) at the bottom. px = 670 - 40 lx, py = 660 + 40 lz -->
<rect x="500" y="500" width="340" height="345" class="panel"/>
<text x="506" y="514" class="t" font-weight="bold">C. Ruin, 1:25 (40 px = 1 m), local metres, doorway (SW) down</text>
<line x1="790" y1="580" x2="710" y2="580" class="wall"/><line x1="710" y1="580" x2="550" y2="580" class="half"/>
<line x1="790" y1="580" x2="790" y2="660" class="wall"/><line x1="790" y1="660" x2="790" y2="740" class="half"/>
<line x1="550" y1="580" x2="550" y2="660" class="half"/>
<line x1="790" y1="740" x2="710" y2="740" class="half"/><line x1="710" y1="740" x2="694" y2="740" class="wall"/><line x1="646" y1="740" x2="630" y2="740" class="wall"/>
<text x="652" y="756" class="s">doorway</text><text x="566" y="756" class="s">open (fallen)</text><text x="520" y="700" class="s">open</text>
<text x="796" y="700" class="s">window</text>
<rect x="658" y="582" width="76" height="32" class="nocol"/><text x="664" y="602" class="s">bunk frame, under slab</text>
<rect x="762" y="676" width="24" height="32" class="fur"/><text x="724" y="724" class="s">table</text>
<rect x="752" y="594" width="20" height="20" class="fur"/><text x="744" y="626" class="s">cache trunk</text>
<rect x="584" y="598" width="20" height="20" class="fur"/><text x="568" y="634" class="s">stove, pipe</text>
<circle cx="742" cy="700" r="6" class="nocol"/>
<rect x="608" y="762" width="12" height="12" class="act"/><text x="560" y="790" class="s">report box on stump, 0.65 m off the opening</text>
<circle cx="706" cy="733" r="2" fill="#333"/><text x="712" y="732" class="s">hook</text>
<line x1="672" y1="572" x2="684" y2="584" class="gone"/><line x1="672" y1="584" x2="684" y2="572" class="gone"/><text x="690" y="570" class="s">Bush3 goes</text>
<line x1="830" y1="556" x2="796" y2="578" class="route"/><text x="760" y="548" class="s">approach, world 102</text>
<line x1="670" y1="742" x2="700" y2="800" class="route"/><text x="706" y="806" class="s">side path</text>
<line x1="676" y1="742" x2="760" y2="820" class="deck"/><text x="740" y="836" class="s" fill="#c0392b">deck line</text>

<!-- PANEL D: section, deck to ruin. px = 80 + 4 d (d = m from the tower), py = 1130 - 4 h -->
<rect x="20" y="860" width="820" height="300" class="panel"/>
<text x="26" y="876" class="t" font-weight="bold">D. Section along the deck-to-ruin line (bearing 4 from the tower), 1:1000, heights absolute; ground between is not sampled</text>
<circle cx="80" cy="899.6" r="4" fill="#c0392b"/><text x="88" y="896" class="s">deck eye 57.6</text>
<line x1="80" y1="905" x2="80" y2="1070" stroke="#555" stroke-width="3"/><text x="86" y="1060" class="s">tower</text>
<polyline points="40,1070 120,1070 300,1112 560,1116 800,1112" fill="none" stroke="#8a7a50" stroke-width="1.5" stroke-dasharray="4 3"/>
<line x1="80" y1="899.6" x2="540" y2="1114" class="deck"/>
<polygon points="424,1116 430,1004 436,1116" class="tree"/><polygon points="436,1116 442,1010 448,1116" class="tree"/><polygon points="412,1116 418,1020 424,1116" class="tree"/>
<text x="330" y="1000" class="s">R-1 screen firs, 22 to 28 m, 23 to 29 m from the ruin</text>
<text x="360" y="1080" class="s" fill="#c0392b">line 14 to 18 m up here</text>
<rect x="528" y="1104" width="24" height="10" class="ruin"/><text x="520" y="1132" class="s">ruin, wall 2.4</text>
<line x1="484" y1="1116" x2="490" y2="1116" stroke="#b07a3a" stroke-width="6"/><text x="456" y="1150" class="s">loop, 14 m south</text>
<rect x="520" y="900" width="40" height="200" fill="#ffffff" fill-opacity="0.6" stroke="#2a7fd4" stroke-dasharray="4 3"/>
<text x="566" y="930" class="s">N15 sky gap, r 8, vertical:</text><text x="566" y="942" class="s">opens no deck line</text>
<polygon points="566,1116 574,970 582,1116" class="tree"/><polygon points="590,1116 598,980 606,1116" class="tree"/>
<text x="612" y="980" class="s">N1 giants, 34 to 40</text>
<line x1="540" y1="1114" x2="380" y2="1014" stroke="#d4a017" stroke-width="1.5" stroke-dasharray="3 3"/>
<text x="230" y="960" class="s" fill="#8a6a00">day-one sun 200 / 32, 16 degrees off this plane: a shaft would cut the screen. Rejected.</text>
<text x="640" y="1150" class="t">Sable</text>
</svg>
