<svg xmlns="http://www.w3.org/2000/svg" width="1340" height="1200" viewBox="0 0 1340 1200" font-family="Arial, Helvetica, sans-serif">
  <defs>
    <linearGradient id="fire" x1="0" y1="0" x2="1" y2="0">
      <stop offset="0" stop-color="#e2552a" stop-opacity="0.9"/>
      <stop offset="1" stop-color="#f3a54a" stop-opacity="0.3"/>
    </linearGradient>
    <linearGradient id="face" x1="0" y1="0" x2="1" y2="0">
      <stop offset="0" stop-color="#6e6660"/>
      <stop offset="1" stop-color="#b3a58e"/>
    </linearGradient>
    <pattern id="brush" width="6" height="6" patternUnits="userSpaceOnUse" patternTransform="rotate(45)">
      <rect width="6" height="6" fill="#8a9a5a" fill-opacity="0.35"/>
      <line x1="0" y1="0" x2="0" y2="6" stroke="#4a5a2a" stroke-width="1.5"/>
    </pattern>
    <pattern id="echo" width="7" height="7" patternUnits="userSpaceOnUse" patternTransform="rotate(-45)">
      <line x1="0" y1="0" x2="0" y2="7" stroke="#2a5aa5" stroke-width="1.4" stroke-opacity="0.55"/>
    </pattern>
    <marker id="arrR" viewBox="0 0 10 10" refX="9" refY="5" markerWidth="7" markerHeight="7" orient="auto"><path d="M0,0 L10,5 L0,10 z" fill="#b01e1e"/></marker>
    <marker id="arrK" viewBox="0 0 10 10" refX="9" refY="5" markerWidth="7" markerHeight="7" orient="auto"><path d="M0,0 L10,5 L0,10 z" fill="#222"/></marker>
  </defs>

  <rect x="0" y="0" width="1340" height="1200" fill="#f6f3ec"/>
  <text x="60" y="26" font-size="16" font-weight="bold" fill="#222">Valley map. DRAFT revision 9, 2026-09-30, Sable (PLAN 8.13). Land hides the fire; boundaries come from the land. For Marlow's recheck.</text>
  <text x="60" y="44" font-size="11" fill="#444">Plan 1.5 px per m, north up. Origin south-west, x east, z north, heights absolute. Numbers and the leg-by-leg walk: Docs/Design/Valley.md rev 9. Places not drawn stay as Main3.md rev 16.</text>

  <!-- ===================== PLAN ===================== -->
  <rect x="60" y="60" width="780" height="630" fill="#e6e9d4" stroke="#999" stroke-width="1"/>
  <rect x="744" y="60" width="96" height="630" fill="#dfe6cf"/>
  <polygon points="60,60 750,60 750,123 735,142.5 600,147 450,153 300,157.5 270,165 270,307.5 219,330 219,450 207,472.5 207,585 330,597 450,606 600,603 735,612 750,627 750,690 60,690" fill="#cdbfa8" stroke="#8a7a62" stroke-width="1"/>
  <rect x="90" y="60" width="72" height="630" fill="url(#face)" opacity="0.8"/>
  <rect x="60" y="60" width="30" height="630" fill="url(#fire)"/>
  <text transform="translate(72,420) rotate(-90)" text-anchor="middle" font-size="11" font-weight="bold" fill="#7a1e08">FIRE, hidden by land: valley fires x -110 to -220 (tops 20); far front x -240 to -400, z -150 to 650 (tops 105)</text>
  <text transform="translate(120,420) rotate(-90)" text-anchor="middle" font-size="10" fill="#f6f3ec">west face, cliff to the floor at -40 by x -40</text>

  <rect x="150" y="150" width="600" height="450" fill="none" stroke="#777" stroke-width="0.8" stroke-dasharray="4,4"/>
  <text x="152" y="146" font-size="9" fill="#777">old 400 x 300 m box (no wall on it)</text>

  <!-- echo walls (Hollis) -->
  <rect x="198" y="105" width="18" height="540" fill="url(#echo)"/>
  <rect x="90" y="70" width="180" height="30" fill="url(#echo)"/>
  <rect x="90" y="650" width="180" height="28" fill="url(#echo)"/>
  <rect x="480" y="628" width="60" height="32" fill="url(#echo)"/>

  <!-- crest lines -->
  <polyline points="171,660 165,615 171,540 168,300" fill="none" stroke="#4a3a2e" stroke-width="3"/>
  <polyline points="168,232.5 168,90" fill="none" stroke="#4a3a2e" stroke-width="3"/>
  <polyline points="168,90 300,82.5 525,93 742.5,102" fill="none" stroke="#4a3a2e" stroke-width="2.5"/>
  <polyline points="171,660 300,667.5 510,657 742.5,645" fill="none" stroke="#4a3a2e" stroke-width="2.5"/>
  <!-- crest belt, look only: knots -->
  <g fill="#2f6b2a" fill-opacity="0.45">
    <circle cx="168" cy="560" r="9"/><circle cx="169" cy="470" r="8"/><circle cx="167" cy="400" r="9"/><circle cx="168" cy="330" r="7"/>
    <circle cx="170" cy="120" r="8"/><circle cx="130" cy="88" r="8"/><circle cx="220" cy="86" r="7"/>
    <circle cx="130" cy="664" r="7"/><circle cx="230" cy="666" r="6"/>
  </g>
  <g font-size="9">
    <text x="176" y="455" font-weight="bold" fill="#4a3a2e">W crest 80 (z 40 to 345)</text>
    <text x="176" y="466" fill="#1f4a1c">belt knots: look only, tops 96-106</text>
    <text x="176" y="600" fill="#4a3a2e">saddle 74 (z -10)</text>
    <text x="176" y="652" fill="#4a3a2e">SW corner 76</text>
    <text x="96" y="68" fill="#4a3a2e">NW corner 80, N hook 76 to 70</text>
    <text x="96" y="690" fill="#4a3a2e">S hook 76 to 66</text>
    <text x="300" y="76" fill="#4a3a2e">N knob 58 (x 120)</text>
    <text x="420" y="84" fill="#4a3a2e">45</text>
    <text x="520" y="88" fill="#4a3a2e">saddle 28 (x 250)</text>
    <text x="640" y="95" fill="#4a3a2e">34 ... foothill 20</text>
    <text x="300" y="682" fill="#4a3a2e">50</text>
    <text x="400" y="678" fill="#4a3a2e">saddle 32 (x 170)</text>
    <text x="545" y="640" fill="#2a5aa5">granite knob 45: echo wall</text>
    <text x="640" y="662" fill="#4a3a2e">30 ... foothill 16</text>
  </g>
  <text x="420" y="118" font-size="12" font-weight="bold" fill="#5a4a3a" text-anchor="middle">NORTH ARM</text>
  <text x="440" y="630" font-size="12" font-weight="bold" fill="#5a4a3a" text-anchor="middle">SOUTH ARM</text>
  <text x="800" y="120" font-size="12" font-weight="bold" fill="#3a5a2a" text-anchor="middle">OPEN EAST</text>

  <!-- rock bands at the feet: boundaries from the land -->
  <polyline points="270,165 300,157.5 450,153 600,147 735,142.5 744,142.5" fill="none" stroke="#3a3430" stroke-width="4"/>
  <polyline points="207,585 330,597 450,606 600,603 735,612 744,612" fill="none" stroke="#3a3430" stroke-width="4"/>
  <polyline points="270,165 270,275" fill="none" stroke="#3a3430" stroke-width="4"/>
  <polyline points="270,286 270,307.5 219,330 219,450 207,472.5 207,585" fill="none" stroke="#3a3430" stroke-width="4"/>
  <text x="228" y="420" font-size="9" fill="#3a3430" transform="rotate(-90,228,420)">W foot rock band 4 m+, face 50 deg+ above</text>
  <text x="620" y="140" font-size="8" fill="#3a3430">N foot rock band 3 m+</text>
  <text x="600" y="620" font-size="8" fill="#3a3430">S foot granite band 3 m+</text>

  <!-- north fir wall -->
  <rect x="285" y="135" width="315" height="37.5" fill="#2f6b2a" fill-opacity="0.4"/>
  <g fill="#2f6b2a" fill-opacity="0.6"><circle cx="320" cy="150" r="6"/><circle cx="380" cy="146" r="6"/><circle cx="450" cy="152" r="6"/><circle cx="510" cy="148" r="6"/><circle cx="570" cy="152" r="6"/></g>
  <text x="440" y="131" font-size="9" fill="#1f4a1c" text-anchor="middle">north fir wall, 25 m deep, firs 8-24 ragged, 5 giants, deadfall and brush at its foot</text>

  <!-- closed ground (visible thicket) -->
  <rect x="667.5" y="450" width="76.5" height="150" fill="url(#brush)"/>
  <rect x="360" y="552" width="165" height="40" fill="url(#brush)"/>
  <rect x="219" y="300" width="51" height="52.5" fill="url(#brush)"/>
  <rect x="667.5" y="277.5" width="61.5" height="13.5" fill="url(#brush)"/>
  <rect x="660" y="150" width="12" height="127.5" fill="url(#brush)"/>
  <circle cx="472.5" cy="267" r="12" fill="url(#brush)"/>
  <text x="705" y="470" font-size="8" fill="#3a4a1a" text-anchor="middle">SE thicket</text>
  <text x="442" y="598" font-size="8" fill="#3a4a1a" text-anchor="middle">south shore closed: brush to the water</text>

  <!-- old burn -->
  <polygon points="427.5,373.5 427.5,328.5 660,280.5 660,385.5" fill="#b9a58a" fill-opacity="0.55" stroke="#8a7050" stroke-width="0.8"/>
  <text x="590" y="370" font-size="10" fill="#6a5030" text-anchor="middle">OLD BURN, regrowth + brush</text>

  <!-- lake and creek -->
  <ellipse cx="435" cy="510" rx="82.5" ry="41.25" fill="#8fa9bf" stroke="#5e7890" stroke-width="1"/>
  <text x="435" y="514" font-size="12" font-weight="bold" fill="#2a4a66" text-anchor="middle">LAKE</text>
  <polyline points="306,277.5 306,291 276,375 267,381 276,408 300,435 354.75,501" fill="none" stroke="#3b6ea5" stroke-width="2"/>
  <text x="258" y="428" font-size="8" fill="#3b6ea5">creek, water</text>

  <!-- groves: tops 50 absolute or lower -->
  <g fill="#2f6b2a" fill-opacity="0.35" stroke="#2f6b2a" stroke-width="1">
    <circle cx="412.5" cy="177" r="30"/>
    <circle cx="330" cy="180" r="24"/>
    <circle cx="652.5" cy="172.5" r="24"/>
    <circle cx="472.5" cy="267" r="21"/>
    <circle cx="348" cy="282" r="21"/>
    <circle cx="288" cy="225" r="21"/>
    <circle cx="322.5" cy="408" r="21"/>
    <circle cx="288" cy="487.5" r="21"/>
    <circle cx="247.5" cy="570" r="21"/>
    <circle cx="397.5" cy="573" r="21"/>
    <circle cx="480" cy="573" r="21"/>
    <circle cx="555" cy="540" r="21"/>
    <circle cx="637.5" cy="450" r="21"/>
    <circle cx="660" cy="540" r="24"/>
    <circle cx="462" cy="405" r="15"/>
    <circle cx="577.5" cy="405" r="18"/>
    <circle cx="622.5" cy="262.5" r="12"/>
    <circle cx="607.5" cy="525" r="12"/>
  </g>
  <circle cx="573" cy="243" r="52.5" fill="none" stroke="#2f6b2a" stroke-width="7" stroke-opacity="0.45"/>
  <circle cx="405" cy="360" r="33" fill="none" stroke="#2f6b2a" stroke-width="4" stroke-opacity="0.5" stroke-dasharray="5,3"/>
  <circle cx="402" cy="183" r="7" fill="#f6f3ec" fill-opacity="0.7"/>
  <g font-size="8" fill="#1f4a1c">
    <text x="440" y="214" font-weight="bold">N1 densest: 8 g 34-40, 15 f</text>
    <text x="330" y="208" text-anchor="middle">N2: 6 g 32-38</text>
    <text x="652" y="200" text-anchor="middle">NE: 5 g 38-42</text>
    <text x="495" y="272">Mid: 5 g 36-42, thicket core</text>
    <text x="370" y="290">J: 6 g 36-40</text>
    <text x="252" y="252">NW foot: 6 g 34-38</text>
    <text x="345" y="412">Rim: 6 g 40-46</text>
    <text x="252" y="515">SW: 6 g 42-48</text>
    <text x="214" y="598">Ravine: 5 g 32-36</text>
    <text x="397" y="548" text-anchor="middle">Lake S1: 7 g 42-48</text>
    <text x="482" y="600" text-anchor="middle">Lake S2: 6 g 42-48</text>
    <text x="555" y="567" text-anchor="middle">5 g 41-47</text>
    <text x="662" y="438">C2 east: 5 g 40-46</text>
    <text x="660" y="570" text-anchor="middle">SE: 6 g 40-46</text>
    <text x="597" y="412">Burn edge, moved S</text>
    <text x="478" y="418">HG stand 4 g</text>
    <text x="573" y="306" text-anchor="middle">C1 ring: 7 g 40-45</text>
    <text x="372" y="402">knoll: 4 giants 35 m, tops 50</text>
    <text x="636" y="266">knot 3 g</text>
    <text x="578" y="518">knot 3 g</text>
  </g>

  <!-- trails -->
  <g fill="none" stroke="#b8901a" stroke-width="2.4" stroke-linecap="round" stroke-linejoin="round">
    <polyline points="405,360 417,390 435,420 420,441 435,456"/>
    <polyline points="435,456 472.5,465 502.5,492 513,517.5"/>
    <polyline points="513,517.5 547.5,507 577.5,480 598.5,438"/>
    <polyline points="598.5,438 618,412.5 642,382.5 660,345"/>
    <polyline points="427.5,372 472.5,372 510,360 543,342"/>
    <polyline points="543,342 585,330 622.5,352.5 660,345"/>
    <polyline points="543,342 552,300 555,277.5 573,243"/>
    <polyline points="382.5,360 352.5,363 315,375 285,382.5 267,381"/>
    <polyline points="435,456 390,462 360,480 342,495"/>
    <polyline points="342,495 318,471 297,442.5 285,412.5 270,390"/>
    <polyline points="390,342 352.5,318 321,300 306,291"/>
  </g>
  <polyline points="342,495 315,517.5 285,525 255,531 228,543" fill="none" stroke="#b8901a" stroke-width="2" stroke-dasharray="5,3"/>
  <polyline points="573,243 525,207 487.5,201 442.5,190.5 402,195 360,207 327,246 309,279 306,291" fill="none" stroke="#d07a10" stroke-width="3" stroke-linejoin="round"/>
  <polyline points="402,195 399,187" fill="none" stroke="#d07a10" stroke-width="1.5" stroke-dasharray="2,2"/>
  <text x="470" y="236" font-size="10" font-weight="bold" fill="#a05a08">NORTH LOOP, Camp 1 to J, about 235 m</text>
  <line x1="342" y1="202.5" x2="369" y2="225" stroke="#6a4a2a" stroke-width="4"/>
  <text x="300" y="232" font-size="7" fill="#6a4a2a">fallen giant</text>

  <!-- places -->
  <g font-size="10" font-weight="bold" fill="#222">
    <rect x="410" y="343" width="12" height="9" fill="#7a5a3a"/>
    <rect x="392" y="347" width="8" height="8" fill="#444"/>
    <text x="405" y="330" text-anchor="middle">KEEPER'S CAMP, knoll 15</text>
    <text x="354" y="343" font-size="8" font-weight="normal">tower, deck 56, rails</text>
    <text x="566" y="254">CAMP 1</text>
    <circle cx="588" cy="438" r="9" fill="#8a8078"/>
    <text x="612" y="428">CAMP 2</text>
    <text x="612" y="400" font-size="7" font-weight="normal" fill="#555">stack top sees the gate T</text>
    <circle cx="267" cy="381" r="12" fill="#b3a58e" stroke="#6e6660"/>
    <text x="236" y="366">CAMP 3</text>
    <circle cx="294" cy="380" r="3" fill="#ddd" stroke="#444"/>
    <rect x="507" y="516" width="9" height="8" fill="#6a5a4a"/>
    <text x="520" y="530" font-size="8" font-weight="normal">boathouse</text>
    <rect x="221" y="539" width="14" height="8" fill="#6e6660"/>
    <text x="196" y="560" font-size="9">CAVE mouth</text>
    <rect x="257" y="569" width="27" height="27" fill="none" stroke="#6e6660" stroke-dasharray="3,2"/>
    <rect x="286" y="578" width="11" height="11" fill="none" stroke="#b0308a" stroke-width="1.5"/>
    <rect x="396" y="178.5" width="12" height="9" fill="none" stroke="#5a2a0a" stroke-width="2" stroke-dasharray="3,1"/>
    <line x1="398" y1="187.5" x2="393" y2="191" stroke="#5a2a0a" stroke-width="1.5"/>
    <text x="360" y="170" font-size="9" fill="#5a2a0a">RUIN: stovepipe, roof slab; door SW</text>
  </g>

  <!-- front zone -->
  <rect x="664.5" y="315" width="45" height="60" fill="#8a8a88"/>
  <text x="687" y="362" font-size="9" fill="#fff" text-anchor="middle">LOT</text>
  <rect x="666" y="294" width="18" height="12" fill="#6a6a70" stroke="#222"/>
  <line x1="675" y1="294" x2="675" y2="306" stroke="#ddd" stroke-width="1"/>
  <line x1="666" y1="297" x2="666" y2="303" stroke="#f0c040" stroke-width="3"/>
  <text x="620" y="312" font-size="7">west door into front room</text>
  <text x="644" y="291" font-size="9" font-weight="bold">OFFICE</text>
  <rect x="690" y="293.25" width="18" height="13.5" fill="#c9a24a" stroke="#222"/>
  <rect x="690" y="306.75" width="18" height="3" fill="#e6c878"/>
  <text x="694" y="275" font-size="9" font-weight="bold">STORE</text>
  <rect x="701" y="327" width="7" height="4" fill="#3a3a6a"/>
  <text x="712" y="330" font-size="7">car, faces road</text>
  <rect x="736" y="334" width="4" height="4" fill="#555"/>
  <circle cx="726" cy="360" r="12" fill="none" stroke="#999" stroke-width="3"/>
  <polyline points="727.5,341.25 727.5,321 735,306 735,243" fill="none" stroke="#999" stroke-width="3"/>
  <circle cx="708" cy="207" r="30" fill="none" stroke="#999" stroke-width="7"/>
  <text x="708" y="211" font-size="7" text-anchor="middle">closed</text>
  <text x="708" y="219" font-size="7" text-anchor="middle">campground</text>
  <line x1="731" y1="243" x2="739" y2="243" stroke="#333" stroke-width="2"/>
  <circle cx="685.5" cy="292.5" r="2.5" fill="#d02020"/>
  <rect x="709.5" y="341.25" width="34.5" height="7.5" fill="#777"/>
  <line x1="744" y1="142.5" x2="744" y2="340.5" stroke="#555" stroke-width="2" stroke-dasharray="6,2"/>
  <line x1="744" y1="349.5" x2="744" y2="612" stroke="#555" stroke-width="2" stroke-dasharray="6,2"/>
  <polygon points="736,136 752,132 756,148 740,150" fill="#3a3430"/>
  <polygon points="736,606 752,604 756,618 740,620" fill="#3a3430"/>
  <text x="748" y="480" font-size="9" fill="#444" transform="rotate(-90,748,480)">fence x 396, tied into both rock bands</text>
  <!-- highway -->
  <rect x="744" y="341.25" width="42" height="7.5" fill="#555"/>
  <rect x="784" y="60" width="2" height="630" fill="#9aa07a"/>
  <rect x="798" y="60" width="2" height="630" fill="#9aa07a"/>
  <rect x="786.4" y="60" width="11.2" height="630" fill="#4a4a4a"/>
  <line x1="792" y1="60" x2="792" y2="690" stroke="#e8d060" stroke-width="1" stroke-dasharray="8,6"/>
  <g fill="#444"><circle cx="806" cy="100" r="1.8"/><circle cx="806" cy="175" r="1.8"/><circle cx="806" cy="250" r="1.8"/><circle cx="806" cy="325" r="1.8"/><circle cx="806" cy="400" r="1.8"/><circle cx="806" cy="475" r="1.8"/><circle cx="806" cy="550" r="1.8"/><circle cx="806" cy="625" r="1.8"/></g>
  <text x="822" y="300" font-size="11" font-weight="bold" fill="#222" transform="rotate(-90,822,300)">HIGHWAY x 428, seen, never reached</text>
  <text x="834" y="600" font-size="8" fill="#444" transform="rotate(-90,834,600)">ditches, reflector posts, power poles; curves away at z 430 and -130</text>
  <polygon points="777,388 781,402 773,402" fill="#6a5a4a"/>
  <line x1="777" y1="388" x2="780" y2="382" stroke="#6a5a4a" stroke-width="2"/>
  <text x="752" y="414" font-size="8" fill="#4a3a2a">dead verge tree</text>
  <text x="752" y="332" font-size="7">T: stop sign,</text>
  <text x="752" y="325" font-size="7">entrance sign</text>
  <text x="680" y="400" font-size="8" fill="#444">T trailhead</text>

  <!-- Ward: shoulder, knob, ledge, cwm -->
  <ellipse cx="198" cy="150" rx="26" ry="30" fill="#9a9088" stroke="#5a5048"/>
  <text x="228" y="124" font-size="8" fill="#3a3430">burned cwm, rims 76-80</text>
  <rect x="159" y="150" width="21" height="82.5" fill="#8a8078" stroke="#3a3430"/>
  <rect x="162" y="232.5" width="18" height="67.5" fill="#6a605a" stroke="#3a3430"/>
  <text x="171" y="266" font-size="8" fill="#fff" text-anchor="middle" transform="rotate(-90,171,266)">KNOB 84</text>
  <text x="170" y="165" font-size="7" fill="#fff" text-anchor="middle" transform="rotate(-90,170,165)">shoulder 80-82</text>
  <rect x="135" y="172.5" width="24" height="105" fill="#c8bca8" stroke="#6e6660"/>
  <line x1="135" y1="172.5" x2="135" y2="277.5" stroke="#3a3430" stroke-width="3"/>
  <text x="118" y="286" font-size="8" fill="#222" transform="rotate(-90,118,286)">LEDGE 62, rock lip 0.8 m</text>
  <rect x="152" y="198" width="3" height="8" fill="#3a3430"/>
  <g fill="#222"><rect x="141" y="258" width="6" height="6"/><rect x="148.5" y="262.5" width="6" height="6"/><rect x="136.5" y="265.5" width="6" height="6"/></g>
  <text x="138" y="280" font-size="7">stones</text>
  <circle cx="137.25" cy="231" r="3" fill="#b01e1e"/>
  <line x1="137.25" y1="231" x2="126" y2="231" stroke="#b01e1e" stroke-width="1.5" marker-end="url(#arrR)"/>
  <text x="140" y="241" font-size="7" fill="#b01e1e">end</text>

  <!-- the climb -->
  <polyline points="306,291 279,280.5" fill="none" stroke="#555" stroke-width="3"/>
  <polyline points="279,280.5 228,276" fill="none" stroke="#a0522d" stroke-width="3.5"/>
  <polyline points="228,276 235.5,186" fill="none" stroke="#3b6ea5" stroke-width="3.5"/>
  <polyline points="235.5,186 216,183 189,144" fill="none" stroke="#333" stroke-width="3.5"/>
  <polyline points="189,144 195,174 189,207" fill="none" stroke="#2f7a2a" stroke-width="3.5"/>
  <polyline points="189,207 177,207 171.75,201.75 156,201.75 156,206.25" fill="none" stroke="#7a7068" stroke-width="3"/>
  <polyline points="156,206.25 137.25,231" fill="none" stroke="#c0301a" stroke-width="3"/>
  <g fill="#2f6b2a" fill-opacity="0.7"><circle cx="201" cy="155" r="3"/><circle cx="203" cy="168" r="3"/><circle cx="202" cy="181" r="3"/><circle cx="200" cy="194" r="3"/></g>
  <g font-size="8" font-weight="bold">
    <text x="240" y="296" fill="#a0522d">L1 chute W, 34</text>
    <text x="238" y="245" fill="#3b6ea5">L2 shelf N, 60</text>
    <text x="222" y="176" fill="#333">L3 cwm NW, 45</text>
    <text x="206" y="210" fill="#2f7a2a">L4 under the wall S, 43</text>
  </g>
  <g fill="#fff" stroke="#222" stroke-width="1.2">
    <circle cx="228" cy="276" r="4.5"/><circle cx="235.5" cy="186" r="4.5"/><circle cx="189" cy="144" r="4.5"/><circle cx="189" cy="207" r="5"/>
  </g>
  <g font-size="8" fill="#222">
    <text x="214" y="271">P1 30</text>
    <text x="240" y="190">P2 41</text>
    <text x="176" y="139">P3 52</text>
    <text x="193" y="221">P4 60</text>
  </g>
  <line x1="194" y1="212" x2="222" y2="226" stroke="#222" stroke-width="1.2" marker-end="url(#arrK)"/>
  <text x="150" y="196" font-size="7" fill="#444">cleft, dogleg 6 m in, fin</text>
  <g fill="#f3d27a" stroke="#6a4a10" stroke-width="1">
    <polygon points="234,268 238,272.5 234,277 230,272.5"/>
    <polygon points="231.75,226 235.75,231 231.75,236 227.75,231"/>
    <polygon points="216,178 220,183 216,188 212,183"/>
    <polygon points="195,169 199,174 195,179 191,174"/>
  </g>
  <g font-size="7" fill="#6a4a10">
    <text x="239" y="270">seep, cup</text>
    <text x="238" y="229">rune post</text>
    <text x="218" y="196">split snag</text>
    <text x="178" y="186">bent fir</text>
  </g>

  <!-- invisible walls -->
  <line x1="744" y1="340.5" x2="744" y2="349.5" stroke="#e01010" stroke-width="5"/>
  <line x1="279" y1="276" x2="279" y2="285" stroke="#e01010" stroke-width="5"/>
  <g fill="#6e6660"><circle cx="279" cy="272" r="4"/><circle cx="279" cy="289" r="4"/></g>
  <line x1="721" y1="336" x2="734" y2="336" stroke="#e01010" stroke-width="3" stroke-dasharray="3,2"/>
  <text x="752" y="354" font-size="8" font-weight="bold" fill="#e01010">IW1</text>
  <text x="262" y="302" font-size="8" font-weight="bold" fill="#e01010">IW2 chute mouth, chain</text>
  <text x="702" y="334" font-size="7" font-weight="bold" fill="#e01010">IW3</text>

  <!-- junction markers -->
  <g fill="#fff" stroke="#b8901a" stroke-width="1.6">
    <polygon points="397.5,358 402,363 397.5,368 393,363"/>
    <polygon points="439.5,446.5 444,451.5 439.5,456.5 435,451.5"/>
    <polygon points="543,337 548,342 543,347 538,342"/>
    <polygon points="660,340 665,345 660,350 655,345"/>
    <polygon points="337.5,482.5 342,487.5 337.5,492.5 333,487.5"/>
    <polygon points="306,286 311,291 306,296 301,291"/>
    <polygon points="558,226 563,231 558,236 553,231"/>
    <polygon points="786,331 790,336 786,341 782,336"/>
  </g>
  <g font-size="8" fill="#6a5010">
    <text x="530" y="332">Jg</text>
    <text x="312" y="290">J, cairn</text>
    <text x="344" y="492">W1</text>
    <text x="660" y="338" text-anchor="middle">T</text>
  </g>

  <!-- sites -->
  <g font-size="7" font-weight="bold">
    <g fill="#b0308a">
      <circle cx="699" cy="313" r="3"/><text x="703" y="318">M1</text>
      <circle cx="738" cy="330" r="3"/><text x="741" y="328">M2</text>
      <circle cx="662" cy="300" r="3"/><text x="650" y="306">M3</text>
      <circle cx="705" cy="336" r="3"/><text x="708" y="344">M4</text>
      <circle cx="600" cy="451.5" r="3"/><text x="603" y="460">M5</text>
      <circle cx="262.5" cy="388" r="3"/><text x="250" y="398">M6</text>
      <circle cx="498" cy="517.5" r="3"/><text x="486" y="512">M7</text>
      <circle cx="513" cy="531" r="3"/><text x="516" y="540">M7</text>
      <circle cx="510" cy="512" r="3"/><text x="513" y="508">M8</text>
      <circle cx="573" cy="243" r="3"/><text x="577" y="240">M9</text>
      <circle cx="291" cy="583.5" r="3"/><text x="299" y="586">M10</text>
    </g>
    <g fill="#5a2a8a">
      <circle cx="426" cy="355.5" r="2.5"/><text x="429" y="359">E1</text>
      <circle cx="396" cy="366" r="2.5"/><text x="384" y="376">E2</text>
      <circle cx="453" cy="390" r="2.5"/><text x="444" y="384">E3</text>
      <circle cx="735" cy="249" r="2.5"/><text x="738" y="256">E5</text>
      <circle cx="444" cy="459" r="2.5"/><text x="447" y="468">E6</text>
      <line x1="294" y1="380" x2="270" y2="355.5" stroke="#5a2a8a" stroke-width="1.5"/><text x="272" y="352">E9 Snag line</text>
      <text x="766" y="396">E10</text>
      <text x="410" y="176">E11</text>
      <circle cx="532.5" cy="174" r="2.5"/><text x="536" y="180">SS1</text>
      <circle cx="375" cy="195" r="2.5"/><text x="366" y="190">SS2</text>
      <circle cx="352.5" cy="217.5" r="2.5"/><text x="356" y="222">SS3</text>
      <circle cx="237" cy="375" r="2.5"/><text x="222" y="378">E15</text>
      <circle cx="288" cy="487.5" r="2.5"/><text x="291" y="484">E16</text>
      <circle cx="312" cy="519" r="2.5"/><text x="306" y="514">E17</text>
    </g>
    <g fill="#c04040">
      <circle cx="517.5" cy="355.5" r="3"/><text x="508" y="351">A</text>
      <circle cx="337.5" cy="366" r="3"/><text x="334" y="378">B</text>
      <circle cx="487.5" cy="201" r="3.5"/><text x="480" y="196">C</text>
    </g>
  </g>

  <line x1="600" y1="680" x2="675" y2="680" stroke="#222" stroke-width="2"/>
  <text x="637" y="676" font-size="9" text-anchor="middle">50 m</text>
  <text x="820" y="80" font-size="14" font-weight="bold" fill="#222">N ^</text>

  <!-- ===================== LEGEND ===================== -->
  <g font-size="10" fill="#222">
    <text x="860" y="76" font-size="12" font-weight="bold">Key</text>
    <rect x="860" y="84" width="18" height="10" fill="#cdbfa8" stroke="#8a7a62"/><text x="884" y="93">ridge land, horseshoe open east</text>
    <line x1="860" y1="106" x2="878" y2="106" stroke="#4a3a2e" stroke-width="3"/><text x="884" y="110">crest line; land hides the fire</text>
    <line x1="860" y1="122" x2="878" y2="122" stroke="#3a3430" stroke-width="4"/><text x="884" y="126">rock band: a boundary you can see</text>
    <rect x="860" y="133" width="18" height="10" fill="url(#brush)"/><text x="884" y="142">closed ground: thicket, brush, deadfall</text>
    <rect x="860" y="149" width="18" height="10" fill="url(#echo)"/><text x="884" y="158">echo wall (Hollis)</text>
    <circle cx="869" cy="172" r="7" fill="#2f6b2a" fill-opacity="0.35" stroke="#2f6b2a"/><text x="884" y="176">grove: giants tall, tops 50 or lower</text>
    <line x1="860" y1="190" x2="878" y2="190" stroke="#b8901a" stroke-width="2.4"/><text x="884" y="194">trail; dashed = cave spur, unsigned</text>
    <line x1="860" y1="206" x2="878" y2="206" stroke="#d07a10" stroke-width="3"/><text x="884" y="210">north loop</text>
    <polygon points="869,218 874,223 869,228 864,223" fill="#fff" stroke="#b8901a" stroke-width="1.6"/><text x="884" y="227">junction marker</text>
    <line x1="860" y1="240" x2="878" y2="240" stroke="#e01010" stroke-width="5"/><text x="884" y="244">invisible wall IW1, IW2</text>
    <line x1="860" y1="256" x2="878" y2="256" stroke="#e01010" stroke-width="3" stroke-dasharray="3,2"/><text x="884" y="260">IW3, shift only (decided 2026-09-29)</text>
    <circle cx="869" cy="272" r="3" fill="#b0308a"/><text x="884" y="276">minigame site M</text>
    <circle cx="869" cy="288" r="2.5" fill="#5a2a8a"/><text x="884" y="292">event site E, search spot SS</text>
    <circle cx="869" cy="304" r="3" fill="#c04040"/><text x="884" y="308">forage A, B, C (two bear each day)</text>
    <polygon points="869,314 873,319 869,324 865,319" fill="#f3d27a" stroke="#6a4a10"/><text x="884" y="323">climb landmark</text>
  </g>
  <g font-size="9" fill="#222">
    <text x="860" y="346" font-size="11" font-weight="bold">Invisible walls (all others removed)</text>
    <text x="860" y="360">IW1 gate opening: stops leaving by the front</text>
    <text x="860" y="372">IW2 chute mouth, 3 m between boulders, by day;</text>
    <text x="860" y="384">the only gap in the W foot rock band</text>
    <text x="860" y="396">IW3 spur mouth, shift only; the loop is ringed by brush</text>

    <text x="860" y="418" font-size="11" font-weight="bold">Ward climb, night: camp to end 345 m, 138 s</text>
    <text x="860" y="432">Camp to J 80. Approach 20 to the chain at the chute.</text>
    <text x="860" y="444" fill="#a0522d">L1 boulder chute, W, 34 m, 12 to 30, steps; the seep</text>
    <text x="860" y="456">P1 hide: boulder overhang</text>
    <text x="860" y="468" fill="#3b6ea5">L2 exposed shelf, N, 60 m, 30 to 41, scree; rune post</text>
    <text x="860" y="480">P2 hide: rock roof</text>
    <text x="860" y="492" fill="#333">L3 burned cwm, NW, 45 m, 41 to 52, ash; split snag</text>
    <text x="860" y="504">P3 hide: root plate</text>
    <text x="860" y="516" fill="#2f7a2a">L4 under the wall, S, 43 m, 52 to 60, needles; bent fir;</text>
    <text x="860" y="528" fill="#2f7a2a">firs screen the valley, crest wall blocks the fire</text>
    <text x="860" y="540">P4 60, look-back east: cab, cabin, highway</text>
    <text x="860" y="552">cleft 24.5 m: dogleg 6 m in, fin at the mouth</text>
    <text x="860" y="564">ledge 21 m: the fire; end 1.5 m from the lip, stones left</text>

    <text x="860" y="586" font-size="11" font-weight="bold">Sites</text>
    <text x="860" y="599">M1 store (own level)  M2 gate booth  M3 office: west door</text>
    <text x="860" y="611">into the front room, back room east  M4 car</text>
    <text x="860" y="623">M5 payphone + card table  M6 the canvas you enter</text>
    <text x="860" y="635">M7 fishing  M8 step, bowl, chair  M9 Camp 1 table</text>
    <text x="860" y="647">M10 cave side room  E1 woodpile  E2 R1 day-1 spot</text>
    <text x="860" y="659">E3 Hollow Giant  E5 fee booth phone  E6 bucket</text>
    <text x="860" y="671">E9 Snag line  E10 verge tree (deck frame, hard)</text>
    <text x="860" y="683">E11 ruin  SS1-3 search spots  E15 lamppost  E16 SW light</text>
  </g>

  <!-- ===================== SECTIONS ===================== -->
  <text x="60" y="722" font-size="13" font-weight="bold" fill="#222">Section B: due west from the tower (z 166) to the fire. Horizontal 0.9 px per m, vertical 2 px per m (2.2x).</text>
  <rect x="60" y="730" width="648" height="410" fill="#eef0f4" stroke="#999"/>
  <!-- night-1 columns, note -->
  <g fill="#555" fill-opacity="0.18"><rect x="190" y="730" width="16" height="250"/><rect x="250" y="730" width="18" height="250"/></g>
  <text x="195" y="745" font-size="8" fill="#444">night 1 on: columns to 250, lit only below 130</text>
  <!-- day-1 sheet -->
  <polygon points="429,920 258,871 78,820 78,845 258,893 429,935" fill="#8a8078" fill-opacity="0.35"/>
  <text x="90" y="815" font-size="8" fill="#4a3a32">day-1 sheet streaming west, top 60 to 110</text>
  <polygon points="60,1000 168,980 312,980 348,1120 492,1120 510,1040 528,960 537,888 541.5,880 546,880 555,900 573,950 591,992 600,1016 613.5,1028 627,1028 640.5,1024 654,1016 664.8,1010 694.5,1010 708,1016 708,1140 60,1140" fill="#b3a58e" stroke="#5a4a3a" stroke-width="1.2"/>
  <g fill="#e2552a" fill-opacity="0.85">
    <polygon points="172,980 182,834 192,980"/><polygon points="205,980 216,830 227,980"/><polygon points="240,980 250,846 260,980"/><polygon points="278,980 290,832 302,980"/>
  </g>
  <text x="240" y="826" font-size="9" fill="#7a1e08" text-anchor="middle">far front x -240 to -400, tops 105</text>
  <g fill="#e2552a" fill-opacity="0.85">
    <polygon points="336,1120 344,1000 352,1120"/><polygon points="372,1120 380,1004 388,1120"/><polygon points="410,1120 418,1000 426,1120"/>
  </g>
  <text x="380" y="1136" font-size="9" fill="#7a1e08" text-anchor="middle">valley fires x -110 to -220, tops 20</text>
  <g fill="#2f6b2a" fill-opacity="0.8">
    <polygon points="530,900 534,836 538,888"/><polygon points="538,882 542,828 546,880"/><polygon points="546,884 550,840 554,896"/>
  </g>
  <text x="560" y="846" font-size="9" fill="#1f4a1c">belt: look only</text>
  <text x="560" y="878" font-size="9" font-weight="bold" fill="#4a3a2e">W crest 80 (land)</text>
  <rect x="672" y="928" width="7" height="82" fill="#5c4632"/>
  <rect x="667" y="920" width="17" height="8" fill="#5c4632"/>
  <text x="690" y="918" font-size="8">deck 56, eye 57.6</text>
  <text x="684" y="1004" font-size="8" text-anchor="end">knoll 15</text>
  <circle cx="694.5" cy="1006.8" r="2.5" fill="#2f7a2a"/>
  <line x1="675.6" y1="924.8" x2="541.5" y2="889.8" stroke="#b01e1e" stroke-width="1.6"/>
  <line x1="541.5" y1="889.8" x2="312" y2="830" stroke="#b01e1e" stroke-width="1" stroke-dasharray="4,3"/>
  <line x1="675.6" y1="924.8" x2="541.5" y2="901.2" stroke="#b01e1e" stroke-width="1" stroke-opacity="0.7"/>
  <line x1="541.5" y1="901.2" x2="78" y2="820" stroke="#b01e1e" stroke-width="0.8" stroke-dasharray="2,3" stroke-opacity="0.7"/>
  <line x1="694.5" y1="1006.8" x2="541.5" y2="936" stroke="#2f7a2a" stroke-width="1.6"/>
  <line x1="541.5" y1="936" x2="312" y2="830" stroke="#2f7a2a" stroke-width="0.8" stroke-dasharray="4,3"/>
  <g font-size="9">
    <text x="330" y="770" fill="#b01e1e" font-weight="bold">Deck eye to the nearest flame top: 75.1 at the crest.</text>
    <text x="330" y="782" fill="#b01e1e">Land 80 blocks it: 1.9 m with eye and target +3 (1.5 at jump).</text>
    <text x="330" y="794" fill="#b01e1e">Day-1 sheet top: 69.4 at the crest, land blocks by 7.6 (+3).</text>
    <text x="566" y="972" fill="#2f7a2a">camp eye: 52 at the crest,</text>
    <text x="566" y="983" fill="#2f7a2a">land blocks by 25</text>
    <text x="494" y="1112" font-size="8" fill="#5a4a3a">face to -40</text>
    <text x="70" y="1132" font-size="8" fill="#555">x -520</text>
    <text x="700" y="1132" font-size="8" fill="#555" text-anchor="end">x 200</text>
  </g>

  <text x="760" y="722" font-size="13" font-weight="bold" fill="#222">Section A: tower to the Ward stones (bearing 290).</text>
  <text x="760" y="738" font-size="10" fill="#444">Horizontal 2.6 px per m, vertical 3 px per m.</text>
  <rect x="790" y="760" width="530" height="380" fill="#eef0f4" stroke="#999"/>
  <polygon points="1290,1055 1251.3,1055 1168.6,1070 1113.2,1073 1058.1,1064 1003,992 947.6,920 906.2,866 892.5,848 859.2,848 853.7,914 826.2,914 800,914 800,1100 1290,1100" fill="#b3a58e" stroke="#5a4a3a" stroke-width="1.2"/>
  <rect x="859.2" y="848" width="33.3" height="66" fill="#6a605a" fill-opacity="0.6"/>
  <text x="876" y="840" font-size="9" text-anchor="middle" font-weight="bold">knob 84, bare rock</text>
  <g fill="#222"><rect x="823" y="890" width="4" height="24"/><rect x="829" y="890" width="4" height="24"/></g>
  <text x="800" y="882" font-size="9">stones 62 to 70</text>
  <text x="804" y="930" font-size="9">ledge 62</text>
  <g fill="#2f6b2a"><polygon points="1000,996 1006,935 1012,990"/><polygon points="960,950 966,892 972,940"/></g>
  <text x="975" y="1010" font-size="8" fill="#1f4a1c">face firs</text>
  <rect x="1286" y="932" width="7" height="123" fill="#5c4632"/>
  <rect x="1281" y="924" width="17" height="8" fill="#5c4632"/>
  <text x="1276" y="918" font-size="9" text-anchor="end">deck 56, eye 57.6</text>
  <text x="1276" y="1050" font-size="8" text-anchor="end">knoll 15</text>
  <line x1="1290" y1="927.2" x2="892.5" y2="895.4" stroke="#b01e1e" stroke-width="1.6"/>
  <line x1="892.5" y1="895.4" x2="831" y2="890" stroke="#b01e1e" stroke-width="1" stroke-dasharray="4,3"/>
  <g font-size="9">
    <text x="930" y="786" fill="#b01e1e" font-weight="bold">Deck eye to stone tops: 68.2 at the knob's east edge.</text>
    <text x="930" y="798" fill="#b01e1e">Knob 84 across x 8 to 20, z 200 to 245: 12.8 m with +3.</text>
    <text x="930" y="810" fill="#444">The tower sees the knob every day, never what is on it.</text>
    <text x="930" y="822" fill="#444">Ledge 62 and stones stand above the deck (56).</text>
    <text x="1080" y="1090" fill="#5a4a3a">J side, ground 10</text>
    <text x="1010" y="1090" fill="#5a4a3a">W foot 12</text>
    <text x="940" y="1060" fill="#3a3430">face 50 deg+, rock bands</text>
  </g>
  <text x="60" y="1160" font-size="10" fill="#444">Paper figures. F-1 is a ray test on land with eye and target raised 3 m; trees never count. Every daytime eye is listed in Valley.md 7. Then W-1, C-1, E-1 and the eye-height gate (DECISIONS 2026-09-30).</text>
  <text x="60" y="1176" font-size="10" fill="#444">Heights rev 8 to rev 9: W crest 64-70 to 80 (saddle 74, z -10); knob 74 to 84; ledge 62; climb 292 m, 117 s to 265 m, 106 s; camp to the Ward 345 m, 138 s. Sable.</text>
</svg>
